<?xml version="1.0" encoding="utf-8"?>
<!-- Generator: Adobe Illustrator 25.3.0, SVG Export Plug-In . SVG Version: 6.00 Build 0)  -->
<svg version="1.1" id="Calque_1" xmlns="http://www.w3.org/2000/svg" xmlns:xlink="http://www.w3.org/1999/xlink" x="0px" y="0px"
	 viewBox="0 0 324.06 54.92" style="enable-background:new 0 0 324.06 54.92;" xml:space="preserve">
<style type="text/css">
	.st0{fill:#00A6E2;}
	.st1{fill:#0FC54F;}
	.st2{fill:#FFA300;}
	.st3{fill:#0F1822;}
</style>
<rect x="37.22" y="1.11" class="st0" width="8.27" height="37.22"/>
<rect x="24.82" y="17.65" class="st1" width="8.27" height="37.27"/>
<rect x="12.41" y="13.51" class="st2" width="8.27" height="24.81"/>
<rect y="21.79" class="st3" width="8.27" height="24.81"/>
<g>
	<path class="st3" d="M90.02,28.13H72.49c0.4,1.58,1.22,2.8,2.45,3.66c1.23,0.86,2.75,1.29,4.57,1.29c2.46,0,4.78-0.84,6.97-2.52
		l2.83,4.65c-2.96,2.49-6.3,3.74-10,3.74c-2.59,0-4.93-0.57-7.02-1.72c-2.09-1.14-3.72-2.72-4.9-4.72c-1.18-2-1.77-4.22-1.77-6.64
		c0-2.42,0.57-4.64,1.72-6.64c1.14-2,2.72-3.58,4.72-4.72c2-1.14,4.22-1.72,6.64-1.72c2.29,0,4.33,0.51,6.11,1.54
		c1.78,1.03,3.17,2.42,4.17,4.19c0.99,1.77,1.49,3.73,1.49,5.88C90.47,25.6,90.32,26.85,90.02,28.13z M74.66,19.64
		c-1.08,0.91-1.8,2.14-2.17,3.69h11.36c-0.03-1.55-0.57-2.78-1.62-3.69c-1.04-0.91-2.31-1.36-3.79-1.36
		C77,18.28,75.74,18.74,74.66,19.64z"/>
	<path class="st3" d="M113.17,15.53c1.94,1.84,2.9,4.49,2.9,7.95v14.85h-6.26v-2.42c-0.91,0.94-2.01,1.68-3.31,2.22
		c-1.3,0.54-2.74,0.81-4.32,0.81c-2.66,0-4.76-0.7-6.31-2.1c-1.55-1.4-2.32-3.19-2.32-5.38c0-2.26,0.85-4.03,2.55-5.33
		c1.7-1.3,4-1.94,6.89-1.94h6.26v-1.11c0-1.38-0.4-2.46-1.19-3.23c-0.79-0.77-1.94-1.16-3.46-1.16c-1.28,0-2.42,0.28-3.43,0.83
		c-1.01,0.56-2.07,1.42-3.18,2.6l-3.54-4.19c2.9-3.43,6.53-5.15,10.91-5.15C108.64,12.78,111.24,13.69,113.17,15.53z M107.74,32.55
		c1.01-0.93,1.51-2.11,1.51-3.56v-0.3h-5.35c-1.11,0-1.97,0.21-2.58,0.63c-0.61,0.42-0.91,1.05-0.91,1.89c0,0.84,0.33,1.51,0.99,2
		c0.66,0.49,1.52,0.73,2.6,0.73C105.49,33.94,106.73,33.47,107.74,32.55z"/>
	<path class="st3" d="M139.58,16.51l-3.43,4.19c-1.68-1.58-3.55-2.37-5.61-2.37c-0.84,0-1.5,0.15-1.97,0.45
		c-0.47,0.3-0.71,0.74-0.71,1.31c0,0.47,0.19,0.87,0.58,1.19c0.39,0.32,1.07,0.67,2.04,1.04l2.42,1.01c2.42,0.98,4.2,2.03,5.33,3.16
		c1.13,1.13,1.69,2.62,1.69,4.47c0,2.49-0.92,4.44-2.75,5.86c-1.84,1.41-4.17,2.12-6.99,2.12c-2.19,0-4.18-0.43-5.96-1.29
		c-1.79-0.86-3.25-2.05-4.39-3.56l3.43-4.14c2.19,2.26,4.53,3.38,7.02,3.38c0.91,0,1.67-0.18,2.27-0.53
		c0.61-0.35,0.91-0.87,0.91-1.54c0-0.54-0.19-0.95-0.58-1.24c-0.39-0.29-1.05-0.63-1.99-1.04l-2.68-1.11
		c-2.29-0.94-4-1.99-5.13-3.13c-1.13-1.14-1.69-2.64-1.69-4.49c0-2.36,0.85-4.2,2.55-5.53c1.7-1.33,3.91-1.99,6.64-1.99
		C134.33,12.73,137.32,13.99,139.58,16.51z"/>
	<path class="st3" d="M168.89,13.33L156.92,40.5c-1.15,2.59-2.51,4.49-4.09,5.71c-1.58,1.21-3.54,1.82-5.86,1.82
		c-1.41,0-2.88-0.2-4.39-0.61v-5.71c1.55,0.13,2.52,0.2,2.93,0.2c1.21,0,2.24-0.24,3.08-0.71c0.84-0.47,1.55-1.36,2.12-2.68
		l0.76-1.72l-9.59-23.48h7.22l6.11,16.41l6.51-16.41H168.89z"/>
	<path class="st3" d="M189.4,14.42c1.85,1.09,3.32,2.6,4.39,4.52l-4.75,3.69c-0.78-1.14-1.64-2.04-2.6-2.68
		c-0.96-0.64-2.1-0.96-3.41-0.96c-1.92,0-3.49,0.65-4.72,1.94c-1.23,1.3-1.84,2.92-1.84,4.87c0,1.99,0.61,3.63,1.84,4.92
		c1.23,1.3,2.8,1.94,4.72,1.94c1.28,0,2.4-0.31,3.36-0.93c0.96-0.62,1.84-1.51,2.65-2.65l4.75,3.64c-1.08,1.92-2.55,3.43-4.42,4.54
		c-1.87,1.11-4.01,1.67-6.44,1.67c-2.46,0-4.71-0.58-6.74-1.74c-2.04-1.16-3.65-2.74-4.85-4.75c-1.2-2-1.79-4.22-1.79-6.64
		s0.6-4.63,1.79-6.62c1.19-1.99,2.81-3.55,4.85-4.7c2.04-1.14,4.28-1.72,6.74-1.72C185.4,12.78,187.55,13.32,189.4,14.42z"/>
	<path class="st3" d="M216.55,15.53c1.94,1.84,2.9,4.49,2.9,7.95v14.85h-6.26v-2.42c-0.91,0.94-2.01,1.68-3.31,2.22
		c-1.3,0.54-2.74,0.81-4.32,0.81c-2.66,0-4.76-0.7-6.31-2.1c-1.55-1.4-2.32-3.19-2.32-5.38c0-2.26,0.85-4.03,2.55-5.33
		c1.7-1.3,4-1.94,6.89-1.94h6.26v-1.11c0-1.38-0.4-2.46-1.19-3.23c-0.79-0.77-1.94-1.16-3.46-1.16c-1.28,0-2.42,0.28-3.43,0.83
		c-1.01,0.56-2.07,1.42-3.18,2.6l-3.54-4.19c2.9-3.43,6.53-5.15,10.91-5.15C212.01,12.78,214.61,13.69,216.55,15.53z M211.12,32.55
		c1.01-0.93,1.51-2.11,1.51-3.56v-0.3h-5.35c-1.11,0-1.97,0.21-2.58,0.63c-0.61,0.42-0.91,1.05-0.91,1.89c0,0.84,0.33,1.51,0.99,2
		c0.66,0.49,1.52,0.73,2.6,0.73C208.86,33.94,210.11,33.47,211.12,32.55z"/>
	<path class="st3" d="M246.03,14.47c1.83,1.13,3.27,2.68,4.32,4.65c1.04,1.97,1.57,4.2,1.57,6.69c0,2.49-0.52,4.73-1.57,6.72
		c-1.04,1.99-2.48,3.55-4.32,4.7c-1.84,1.14-3.91,1.72-6.24,1.72c-1.51,0-2.91-0.26-4.19-0.78s-2.37-1.27-3.28-2.25v11.51h-6.82
		V13.33h6.26v3.13c0.84-1.18,1.96-2.09,3.36-2.73c1.4-0.64,2.95-0.96,4.67-0.96C242.11,12.78,244.19,13.34,246.03,14.47z
		 M243.12,30.83c1.25-1.26,1.87-2.92,1.87-4.97c0-2.09-0.62-3.76-1.84-5.03c-1.23-1.26-2.77-1.89-4.62-1.89
		c-1.72,0-3.2,0.58-4.44,1.74c-1.25,1.16-1.87,2.87-1.87,5.13c0,2.22,0.61,3.93,1.84,5.13c1.23,1.2,2.72,1.79,4.47,1.79
		C240.35,32.72,241.88,32.09,243.12,30.83z"/>
	<path class="st3" d="M263.49,38.33h-6.82v-25h6.82V38.33z"/>
	<path class="st3" d="M285.56,32.62v5.71c-1.62,0.4-3.18,0.61-4.7,0.61c-3.17,0-5.62-0.78-7.37-2.35c-1.75-1.57-2.63-3.91-2.63-7.04
		V19.09h-3.94v-5.76h3.94V7.02h6.82v6.31h7.07v5.76h-7.07v9.85c0,1.41,0.37,2.42,1.11,3c0.74,0.59,1.92,0.88,3.54,0.88
		C282.73,32.83,283.81,32.76,285.56,32.62z"/>
	<path class="st3" d="M308.27,15.53c1.94,1.84,2.9,4.49,2.9,7.95v14.85h-6.26v-2.42c-0.91,0.94-2.01,1.68-3.31,2.22
		c-1.3,0.54-2.74,0.81-4.32,0.81c-2.66,0-4.76-0.7-6.31-2.1c-1.55-1.4-2.32-3.19-2.32-5.38c0-2.26,0.85-4.03,2.55-5.33
		c1.7-1.3,4-1.94,6.89-1.94h6.26v-1.11c0-1.38-0.4-2.46-1.19-3.23c-0.79-0.77-1.94-1.16-3.46-1.16c-1.28,0-2.42,0.28-3.43,0.83
		c-1.01,0.56-2.07,1.42-3.18,2.6l-3.54-4.19c2.9-3.43,6.53-5.15,10.91-5.15C303.73,12.78,306.33,13.69,308.27,15.53z M302.84,32.55
		c1.01-0.93,1.51-2.11,1.51-3.56v-0.3H299c-1.11,0-1.97,0.21-2.58,0.63c-0.61,0.42-0.91,1.05-0.91,1.89c0,0.84,0.33,1.51,0.99,2
		c0.66,0.49,1.52,0.73,2.6,0.73C300.58,33.94,301.83,33.47,302.84,32.55z"/>
	<path class="st3" d="M324.06,38.33h-6.82V0.45h6.82V38.33z"/>
</g>
<path class="st2" d="M263.19,1.21c0.84,0.81,1.26,1.82,1.26,3.03c0,1.18-0.42,2.17-1.26,2.98c-0.84,0.81-1.87,1.21-3.08,1.21
	s-2.25-0.4-3.11-1.21c-0.86-0.81-1.29-1.8-1.29-2.98c0-1.21,0.43-2.22,1.29-3.03C257.86,0.4,258.89,0,260.11,0
	S262.34,0.4,263.19,1.21z"/>
</svg>
