<?xml version="1.0" encoding="utf-8"?>
<!-- Generator: Adobe Illustrator 25.3.0, SVG Export Plug-In . SVG Version: 6.00 Build 0)  -->
<svg version="1.1" id="Calque_1" xmlns="http://www.w3.org/2000/svg" xmlns:xlink="http://www.w3.org/1999/xlink" x="0px" y="0px"
	 viewBox="0 0 319.04 54.47" style="enable-background:new 0 0 319.04 54.47;" xml:space="preserve">
<style type="text/css">
	.st0{fill:#00A6E2;}
	.st1{fill:#0FC54F;}
	.st2{fill:#FFA300;}
	.st3{fill:#0F1822;}
</style>
<rect x="37.22" y="0.65" class="st0" width="8.27" height="37.22"/>
<rect x="24.82" y="17.2" class="st1" width="8.27" height="37.27"/>
<rect x="12.41" y="13.06" class="st2" width="8.27" height="24.81"/>
<rect y="21.33" class="st3" width="8.27" height="24.81"/>
<path class="st3" d="M89.81,27.22H71.33c0.34,2.02,1.24,3.61,2.7,4.77c1.46,1.16,3.26,1.74,5.38,1.74c2.59,0,5-0.98,7.22-2.93
	l2.53,3.64c-2.83,2.66-6.13,3.99-9.9,3.99c-2.53,0-4.8-0.56-6.82-1.69c-2.02-1.13-3.61-2.68-4.77-4.65s-1.74-4.17-1.74-6.59
	c0-2.39,0.56-4.58,1.69-6.56c1.13-1.99,2.68-3.55,4.65-4.7s4.13-1.72,6.49-1.72c2.19,0,4.15,0.5,5.88,1.49
	c1.73,0.99,3.1,2.35,4.09,4.07c0.99,1.72,1.49,3.65,1.49,5.81C90.22,24.93,90.08,26.04,89.81,27.22z M73.98,18.66
	c-1.3,1.09-2.15,2.57-2.55,4.42h13.48c-0.03-1.89-0.67-3.37-1.89-4.44c-1.23-1.08-2.72-1.62-4.47-1.62
	C76.8,17.02,75.28,17.57,73.98,18.66z"/>
<path class="st3" d="M112.45,15.2c1.85,1.79,2.78,4.34,2.78,7.68v15h-4.95V35.1c-0.91,1.08-2.04,1.9-3.38,2.47
	c-1.35,0.57-2.86,0.86-4.54,0.86c-2.59,0-4.68-0.66-6.26-1.97c-1.58-1.31-2.37-3.05-2.37-5.2c0-2.15,0.83-3.87,2.47-5.15
	c1.65-1.28,3.87-1.92,6.67-1.92h7.02v-1.62c0-1.72-0.46-3.03-1.39-3.94c-0.93-0.91-2.23-1.36-3.91-1.36c-1.38,0-2.61,0.3-3.69,0.91
	c-1.08,0.61-2.14,1.53-3.18,2.78l-3.08-3.13c1.25-1.78,2.76-3.11,4.54-3.99c1.78-0.88,3.75-1.31,5.91-1.31
	C108.14,12.52,110.6,13.42,112.45,15.2z M108.01,32.67c1.25-1.11,1.87-2.51,1.87-4.19v-0.45h-6.36c-1.41,0-2.5,0.25-3.26,0.76
	c-0.76,0.5-1.14,1.26-1.14,2.27c0,1.04,0.4,1.85,1.21,2.42c0.81,0.57,1.85,0.86,3.13,0.86C105.25,34.34,106.76,33.78,108.01,32.67z"
	/>
<path class="st3" d="M138.37,16.36l-2.88,3.28c-0.77-0.81-1.67-1.43-2.68-1.87c-1.01-0.44-2.05-0.66-3.13-0.66
	c-1.04,0-1.87,0.2-2.47,0.61c-0.61,0.4-0.91,0.99-0.91,1.77c0,0.64,0.24,1.17,0.73,1.59c0.49,0.42,1.34,0.87,2.55,1.34l2.37,0.96
	c2.36,0.98,4.07,2.03,5.15,3.16c1.08,1.13,1.62,2.57,1.62,4.32c0,2.39-0.88,4.25-2.63,5.58c-1.75,1.33-3.94,2-6.57,2
	c-2.12,0-4.04-0.44-5.76-1.31c-1.72-0.88-3.13-2.04-4.24-3.48l3.03-3.33c1.08,1.15,2.18,2.02,3.31,2.63
	c1.13,0.61,2.35,0.91,3.66,0.91c1.14,0,2.1-0.24,2.85-0.71c0.76-0.47,1.14-1.16,1.14-2.07c0-0.74-0.28-1.31-0.83-1.72
	c-0.55-0.4-1.44-0.86-2.65-1.36l-2.52-1.06c-2.19-0.91-3.81-1.9-4.87-2.98c-1.06-1.08-1.59-2.49-1.59-4.24
	c0-2.22,0.82-3.97,2.47-5.25c1.65-1.28,3.74-1.92,6.26-1.92C133.35,12.52,136.21,13.8,138.37,16.36z"/>
<path class="st3" d="M167.1,13.08L155.03,40.7c-1.04,2.36-2.29,4.08-3.74,5.18c-1.45,1.09-3.23,1.64-5.35,1.64
	c-1.38,0-2.74-0.17-4.09-0.5v-4.49c1.55,0.13,2.53,0.2,2.93,0.2c1.25,0,2.31-0.26,3.18-0.78c0.88-0.52,1.62-1.47,2.22-2.85
	l1.01-2.32l-9.9-23.68H147l7.12,18.03l7.32-18.03H167.1z"/>
<path class="st3" d="M187.71,14.06c1.8,1.03,3.24,2.43,4.32,4.22l-3.74,2.93c-1.79-2.52-4.01-3.79-6.67-3.79
	c-1.48,0-2.81,0.35-3.99,1.06c-1.18,0.71-2.1,1.68-2.78,2.9c-0.67,1.23-1.01,2.58-1.01,4.07c0,1.51,0.34,2.89,1.01,4.12
	s1.6,2.2,2.78,2.9c1.18,0.71,2.51,1.06,3.99,1.06c2.63,0,4.85-1.25,6.67-3.74l3.74,2.88c-1.11,1.78-2.57,3.19-4.37,4.22
	c-1.8,1.03-3.83,1.54-6.08,1.54c-2.42,0-4.64-0.57-6.64-1.72c-2-1.14-3.59-2.71-4.75-4.7c-1.16-1.99-1.74-4.17-1.74-6.56
	c0-2.39,0.58-4.57,1.74-6.54c1.16-1.97,2.75-3.53,4.77-4.67c2.02-1.14,4.22-1.72,6.62-1.72C183.86,12.52,185.9,13.04,187.71,14.06z"
	/>
<path class="st3" d="M214.44,15.2c1.85,1.79,2.78,4.34,2.78,7.68v15h-4.95V35.1c-0.91,1.08-2.04,1.9-3.38,2.47
	c-1.35,0.57-2.86,0.86-4.54,0.86c-2.59,0-4.68-0.66-6.26-1.97c-1.58-1.31-2.37-3.05-2.37-5.2c0-2.15,0.83-3.87,2.47-5.15
	c1.65-1.28,3.87-1.92,6.67-1.92h7.02v-1.62c0-1.72-0.46-3.03-1.39-3.94c-0.93-0.91-2.23-1.36-3.91-1.36c-1.38,0-2.61,0.3-3.69,0.91
	c-1.08,0.61-2.14,1.53-3.18,2.78l-3.08-3.13c1.25-1.78,2.76-3.11,4.54-3.99c1.78-0.88,3.75-1.31,5.91-1.31
	C210.12,12.52,212.58,13.42,214.44,15.2z M209.99,32.67c1.25-1.11,1.87-2.51,1.87-4.19v-0.45h-6.36c-1.41,0-2.5,0.25-3.26,0.76
	c-0.76,0.5-1.14,1.26-1.14,2.27c0,1.04,0.4,1.85,1.21,2.42c0.81,0.57,1.85,0.86,3.13,0.86C207.23,34.34,208.74,33.78,209.99,32.67z"
	/>
<path class="st3" d="M243.8,14.22c1.85,1.13,3.3,2.68,4.34,4.65c1.04,1.97,1.57,4.17,1.57,6.59c0,2.46-0.52,4.67-1.57,6.64
	c-1.04,1.97-2.49,3.52-4.34,4.65c-1.85,1.13-3.94,1.69-6.26,1.69c-1.68,0-3.24-0.31-4.67-0.93c-1.43-0.62-2.63-1.51-3.61-2.65v12.12
	h-5.3V13.08h4.95v3.48c0.91-1.28,2.12-2.27,3.64-2.98c1.52-0.71,3.18-1.06,5-1.06C239.86,12.52,241.95,13.09,243.8,14.22z
	 M240.52,32.55c1.14-0.69,2.05-1.64,2.73-2.85c0.67-1.21,1.01-2.61,1.01-4.19c0-1.58-0.33-2.99-0.98-4.22
	c-0.66-1.23-1.57-2.19-2.73-2.88c-1.16-0.69-2.45-1.04-3.86-1.04c-1.31,0-2.53,0.29-3.66,0.88c-1.13,0.59-2.04,1.49-2.75,2.7
	s-1.06,2.71-1.06,4.49c0,1.78,0.35,3.29,1.06,4.52c0.71,1.23,1.62,2.14,2.75,2.73c1.13,0.59,2.35,0.88,3.66,0.88
	C238.09,33.58,239.37,33.24,240.52,32.55z"/>
<path class="st3" d="M260.41,37.88h-5.3v-24.8h5.3V37.88z"/>
<path class="st3" d="M282.07,33.38v4.49c-1.65,0.37-3.11,0.56-4.39,0.56c-2.86,0-5.1-0.71-6.72-2.15c-1.62-1.43-2.42-3.59-2.42-6.49
	V17.67h-4.04v-4.6h4.04V6.56h5.35v6.51h7.37v4.6h-7.37v11.67c0,1.58,0.41,2.69,1.24,3.33c0.82,0.64,2.04,0.96,3.66,0.96
	C279.53,33.63,280.62,33.55,282.07,33.38z"/>
<path class="st3" d="M304.19,15.2c1.85,1.79,2.78,4.34,2.78,7.68v15h-4.95V35.1c-0.91,1.08-2.04,1.9-3.38,2.47
	c-1.35,0.57-2.86,0.86-4.54,0.86c-2.59,0-4.68-0.66-6.26-1.97c-1.58-1.31-2.37-3.05-2.37-5.2c0-2.15,0.83-3.87,2.47-5.15
	c1.65-1.28,3.87-1.92,6.67-1.92h7.02v-1.62c0-1.72-0.46-3.03-1.39-3.94c-0.93-0.91-2.23-1.36-3.91-1.36c-1.38,0-2.61,0.3-3.69,0.91
	c-1.08,0.61-2.14,1.53-3.18,2.78l-3.08-3.13c1.25-1.78,2.76-3.11,4.54-3.99c1.78-0.88,3.75-1.31,5.91-1.31
	C299.88,12.52,302.34,13.42,304.19,15.2z M299.75,32.67c1.25-1.11,1.87-2.51,1.87-4.19v-0.45h-6.36c-1.41,0-2.5,0.25-3.26,0.76
	c-0.76,0.5-1.14,1.26-1.14,2.27c0,1.04,0.4,1.85,1.21,2.42c0.81,0.57,1.85,0.86,3.13,0.86C296.99,34.34,298.5,33.78,299.75,32.67z"
	/>
<path class="st3" d="M319.04,37.88h-5.3V0h5.3V37.88z"/>
<path class="st2" d="M260.34,1.34c0.72,0.69,1.09,1.52,1.09,2.5c0,0.98-0.35,1.8-1.06,2.47c-0.71,0.67-1.57,1.01-2.58,1.01
	s-1.87-0.34-2.58-1.01c-0.71-0.67-1.06-1.5-1.06-2.47c0-0.98,0.35-1.81,1.06-2.5c0.71-0.69,1.57-1.04,2.58-1.04
	C258.76,0.3,259.61,0.65,260.34,1.34z"/>
</svg>
